name rise35.5848peak51.9257fall54.8793.mot
datacolumns 19
datarows 30
range 23.51323700000000 23.56157400000000
endheader
time	ground_force1_vx	ground_force1_vy	ground_force1_vz	ground_force1_px	ground_force1_py	ground_force1_pz	ground_force2_vx	ground_force2_vy	ground_force2_vz	ground_force2_px	ground_force2_py	ground_force2_pz	ground_torque1_x	ground_torque1_y	ground_torque1_z	ground_torque2_x	ground_torque2_y	ground_torque2_z	
23.51323700000000	56.00869800000000	779.40043500000002	64.73690499999999	0.30530200000000	0.00000000000000	0.12422300000000	0.00000000000000	0.00000000000000	0.00000000000000	0.00000000000000	0.00000000000000	0.00000000000000	0.00000000000000	25.26074700000000	0.00000000000000	0.00000000000000	0.00000000000000	0.00000000000000	
23.51490300000000	55.41711600000000	781.44766200000004	64.76054100000000	0.30458500000000	0.00000000000000	0.12419000000000	0.00000000000000	0.00000000000000	0.00000000000000	0.00000000000000	0.00000000000000	0.00000000000000	0.00000000000000	25.30488100000000	0.00000000000000	0.00000000000000	0.00000000000000	0.00000000000000	
23.51657000000000	54.83337600000000	783.35119999999995	64.77751100000000	0.30389700000000	0.00000000000000	0.12415700000000	0.00000000000000	0.00000000000000	0.00000000000000	0.00000000000000	0.00000000000000	0.00000000000000	0.00000000000000	25.34563400000000	0.00000000000000	0.00000000000000	0.00000000000000	0.00000000000000	
23.51823500000000	54.25780700000000	785.11017100000004	64.78819900000001	0.30323700000000	0.00000000000000	0.12412500000000	0.00000000000000	0.00000000000000	0.00000000000000	0.00000000000000	0.00000000000000	0.00000000000000	0.00000000000000	25.38312800000000	0.00000000000000	0.00000000000000	0.00000000000000	0.00000000000000	
23.51990900000000	53.69064700000000	786.72386700000004	64.79292900000000	0.30260100000000	0.00000000000000	0.12409300000000	0.00000000000000	0.00000000000000	0.00000000000000	0.00000000000000	0.00000000000000	0.00000000000000	0.00000000000000	25.41745800000000	0.00000000000000	0.00000000000000	0.00000000000000	0.00000000000000	
23.52157400000000	53.13204700000000	788.19177000000002	64.79196800000000	0.30198900000000	0.00000000000000	0.12406100000000	0.00000000000000	0.00000000000000	0.00000000000000	0.00000000000000	0.00000000000000	0.00000000000000	0.00000000000000	25.44868900000000	0.00000000000000	0.00000000000000	0.00000000000000	0.00000000000000	
23.52323900000000	52.58207500000000	789.51355200000000	64.78552500000001	0.30139800000000	0.00000000000000	0.12403000000000	0.00000000000000	0.00000000000000	0.00000000000000	0.00000000000000	0.00000000000000	0.00000000000000	0.00000000000000	25.47685900000000	0.00000000000000	0.00000000000000	0.00000000000000	0.00000000000000	
23.52490200000000	52.04072400000000	790.68909699999995	64.77375600000001	0.30082700000000	0.00000000000000	0.12400000000000	0.00000000000000	0.00000000000000	0.00000000000000	0.00000000000000	0.00000000000000	0.00000000000000	0.00000000000000	25.50198000000000	0.00000000000000	0.00000000000000	0.00000000000000	0.00000000000000	
23.52656900000000	51.50791100000000	791.71850300000006	64.75676700000000	0.30027200000000	0.00000000000000	0.12397000000000	0.00000000000000	0.00000000000000	0.00000000000000	0.00000000000000	0.00000000000000	0.00000000000000	0.00000000000000	25.52404000000000	0.00000000000000	0.00000000000000	0.00000000000000	0.00000000000000	
23.52824100000000	50.98349200000000	792.60209499999996	64.73461399999999	0.29973200000000	0.00000000000000	0.12394100000000	0.00000000000000	0.00000000000000	0.00000000000000	0.00000000000000	0.00000000000000	0.00000000000000	0.00000000000000	25.54300500000000	0.00000000000000	0.00000000000000	0.00000000000000	0.00000000000000	
23.52990600000000	50.46725700000000	793.34042999999997	64.70731100000000	0.29920400000000	0.00000000000000	0.12391400000000	0.00000000000000	0.00000000000000	0.00000000000000	0.00000000000000	0.00000000000000	0.00000000000000	0.00000000000000	25.55881800000000	0.00000000000000	0.00000000000000	0.00000000000000	0.00000000000000	
23.53157200000000	49.95894400000000	793.93430499999999	64.67482600000000	0.29868700000000	0.00000000000000	0.12388700000000	0.00000000000000	0.00000000000000	0.00000000000000	0.00000000000000	0.00000000000000	0.00000000000000	0.00000000000000	25.57140500000000	0.00000000000000	0.00000000000000	0.00000000000000	0.00000000000000	
23.53323500000000	49.45824200000000	794.38476100000003	64.63709400000000	0.29817600000000	0.00000000000000	0.12386200000000	0.00000000000000	0.00000000000000	0.00000000000000	0.00000000000000	0.00000000000000	0.00000000000000	0.00000000000000	25.58067400000000	0.00000000000000	0.00000000000000	0.00000000000000	0.00000000000000	
23.53490100000000	48.96479600000000	794.69308599999999	64.59401200000001	0.29767100000000	0.00000000000000	0.12383700000000	0.00000000000000	0.00000000000000	0.00000000000000	0.00000000000000	0.00000000000000	0.00000000000000	0.00000000000000	25.58651900000000	0.00000000000000	0.00000000000000	0.00000000000000	0.00000000000000	
23.53657500000000	48.47821500000000	794.86081799999999	64.54545100000000	0.29716900000000	0.00000000000000	0.12381400000000	0.00000000000000	0.00000000000000	0.00000000000000	0.00000000000000	0.00000000000000	0.00000000000000	0.00000000000000	25.58881900000000	0.00000000000000	0.00000000000000	0.00000000000000	0.00000000000000	
23.53823800000000	47.99807800000000	794.88974900000005	64.49125100000001	0.29666700000000	0.00000000000000	0.12379200000000	0.00000000000000	0.00000000000000	0.00000000000000	0.00000000000000	0.00000000000000	0.00000000000000	0.00000000000000	25.58744200000000	0.00000000000000	0.00000000000000	0.00000000000000	0.00000000000000	
23.53991000000000	47.52394000000000	794.78191900000002	64.43123300000001	0.29616200000000	0.00000000000000	0.12377200000000	0.00000000000000	0.00000000000000	0.00000000000000	0.00000000000000	0.00000000000000	0.00000000000000	0.00000000000000	25.58224900000000	0.00000000000000	0.00000000000000	0.00000000000000	0.00000000000000	
23.54157500000000	47.05533700000000	794.53961900000002	64.36519800000001	0.29565300000000	0.00000000000000	0.12375300000000	0.00000000000000	0.00000000000000	0.00000000000000	0.00000000000000	0.00000000000000	0.00000000000000	0.00000000000000	25.57309100000000	0.00000000000000	0.00000000000000	0.00000000000000	0.00000000000000	
23.54323800000000	46.59179300000000	794.16538800000001	64.29293500000000	0.29513700000000	0.00000000000000	0.12373500000000	0.00000000000000	0.00000000000000	0.00000000000000	0.00000000000000	0.00000000000000	0.00000000000000	0.00000000000000	25.55981800000000	0.00000000000000	0.00000000000000	0.00000000000000	0.00000000000000	
23.54490500000000	46.13282600000000	793.66200600000002	64.21422099999999	0.29461200000000	0.00000000000000	0.12371900000000	0.00000000000000	0.00000000000000	0.00000000000000	0.00000000000000	0.00000000000000	0.00000000000000	0.00000000000000	25.54227300000000	0.00000000000000	0.00000000000000	0.00000000000000	0.00000000000000	
23.54656800000000	45.67795500000000	793.03249200000005	64.12882500000001	0.29407600000000	0.00000000000000	0.12370400000000	0.00000000000000	0.00000000000000	0.00000000000000	0.00000000000000	0.00000000000000	0.00000000000000	0.00000000000000	25.52030100000000	0.00000000000000	0.00000000000000	0.00000000000000	0.00000000000000	
23.54823900000000	45.22670100000000	792.28009699999996	64.03651800000000	0.29352600000000	0.00000000000000	0.12369000000000	0.00000000000000	0.00000000000000	0.00000000000000	0.00000000000000	0.00000000000000	0.00000000000000	0.00000000000000	25.49374900000000	0.00000000000000	0.00000000000000	0.00000000000000	0.00000000000000	
23.54990100000000	44.77859600000000	791.40829199999996	63.93706900000000	0.29296000000000	0.00000000000000	0.12367900000000	0.00000000000000	0.00000000000000	0.00000000000000	0.00000000000000	0.00000000000000	0.00000000000000	0.00000000000000	25.46246500000000	0.00000000000000	0.00000000000000	0.00000000000000	0.00000000000000	
23.55157400000000	44.33318800000000	790.42076799999995	63.83025200000000	0.29237700000000	0.00000000000000	0.12366800000000	0.00000000000000	0.00000000000000	0.00000000000000	0.00000000000000	0.00000000000000	0.00000000000000	0.00000000000000	25.42630400000000	0.00000000000000	0.00000000000000	0.00000000000000	0.00000000000000	
23.55323500000000	43.89004400000000	789.32141700000000	63.71584900000000	0.29177500000000	0.00000000000000	0.12365900000000	0.00000000000000	0.00000000000000	0.00000000000000	0.00000000000000	0.00000000000000	0.00000000000000	0.00000000000000	25.38512800000000	0.00000000000000	0.00000000000000	0.00000000000000	0.00000000000000	
23.55490600000000	43.44875300000000	788.11432900000000	63.59365600000000	0.29115100000000	0.00000000000000	0.12365200000000	0.00000000000000	0.00000000000000	0.00000000000000	0.00000000000000	0.00000000000000	0.00000000000000	0.00000000000000	25.33880700000000	0.00000000000000	0.00000000000000	0.00000000000000	0.00000000000000	
23.55657000000000	43.00893400000000	786.80377599999997	63.46348100000000	0.29050500000000	0.00000000000000	0.12364500000000	0.00000000000000	0.00000000000000	0.00000000000000	0.00000000000000	0.00000000000000	0.00000000000000	0.00000000000000	25.28722400000000	0.00000000000000	0.00000000000000	0.00000000000000	0.00000000000000	
23.55824300000000	42.57023500000000	785.39419899999996	63.32514900000000	0.28983500000000	0.00000000000000	0.12364100000000	0.00000000000000	0.00000000000000	0.00000000000000	0.00000000000000	0.00000000000000	0.00000000000000	0.00000000000000	25.23027200000000	0.00000000000000	0.00000000000000	0.00000000000000	0.00000000000000	
23.55990500000000	42.13234000000000	783.89020100000005	63.17850600000000	0.28913900000000	0.00000000000000	0.12363700000000	0.00000000000000	0.00000000000000	0.00000000000000	0.00000000000000	0.00000000000000	0.00000000000000	0.00000000000000	25.16786000000000	0.00000000000000	0.00000000000000	0.00000000000000	0.00000000000000	
23.56157400000000	41.69496900000000	782.29652399999998	63.02342000000000	0.28841700000000	0.00000000000000	0.12363500000000	0.00000000000000	0.00000000000000	0.00000000000000	0.00000000000000	0.00000000000000	0.00000000000000	0.00000000000000	25.09991000000000	0.00000000000000	0.00000000000000	0.00000000000000	0.00000000000000	
